<?xml version="1.0" encoding="utf-8"?>
<svg version="1.1" xmlns:cc="http://creativecommons.org/ns#" xmlns:dc="http://purl.org/dc/elements/1.1/" xmlns:rdf="http://www.w3.org/1999/02/22-rdf-syntax-ns#" xmlns="http://www.w3.org/2000/svg" xmlns:xlink="http://www.w3.org/1999/xlink" x="0px" y="0px" viewBox="0 0 1024 768" xml:space="preserve">
<rect fill="#717951" width="1024" height="768" />

 
 <g id="logo-group" fill="#f6f2f1" stroke-width="0" stroke-miterlimit="2" transform="translate(-59.754 -44.815) scale(1.1167)">
  <path id="path374512" style="font-variant-ligatures:none" d="m319.91 428.34c1.104 0.432 2.28 0.624 3.528 0.624 1.32 0 2.448-0.192 3.36-0.6 0.91199-0.384 1.584-0.936 2.016-1.608s0.672-1.416 0.672-2.232c0-0.984-0.264-1.776-0.792-2.352s-1.152-1.032-1.872-1.32c-0.744-0.288-1.728-0.576-2.952-0.888-1.104-0.264-1.992-0.528-2.616-0.768-0.648-0.24-1.176-0.576-1.608-1.032-0.432-0.432-0.648-1.032-0.648-1.8 0-0.984 0.384-1.8 1.2-2.424 0.792-0.624 1.968-0.936 3.528-0.936 0.768 0 1.56 0.12 2.376 0.36s1.56 0.6 2.232 1.056l0.456-0.984c-0.672-0.456-1.44-0.816-2.328-1.104-0.912-0.264-1.824-0.408-2.736-0.408-1.344 0-2.448 0.216-3.336 0.6-0.888 0.408-1.536 0.96-1.968 1.632s-0.648 1.416-0.648 2.232c0 1.008 0.24 1.824 0.768 2.424s1.152 1.032 1.896 1.32 1.728 0.6 2.976 0.888c1.08 0.264 1.944 0.504 2.592 0.744 0.624 0.24 1.176 0.6 1.608 1.032 0.432 0.456 0.648 1.056 0.648 1.8 0 0.984-0.408 1.776-1.224 2.376-0.816 0.624-2.04 0.912-3.624 0.912-1.104 0-2.16-0.192-3.168-0.576s-1.8-0.912-2.376-1.536l-0.552 0.912c0.624 0.672 1.488 1.224 2.592 1.656z"/>
  <path id="path374514" style="font-variant-ligatures:none" d="m341.81 417.42c-0.84-0.792-2.04-1.2-3.576-1.2-0.95999 0-1.896 0.168-2.76 0.48-0.888 0.312-1.632 0.744-2.256 1.296l0.6 0.864c0.52801-0.48 1.152-0.864 1.92-1.152 0.76799-0.288 1.56-0.432 2.4-0.432 1.2 0 2.136 0.312 2.76 0.912 0.62399 0.624 0.95999 1.512 0.95999 2.664v1.008h-4.296c-1.632 0-2.832 0.336-3.576 0.984s-1.104 1.488-1.104 2.52c0 1.08 0.38399 1.944 1.2 2.592 0.81601 0.672 1.92 0.984 3.312 0.984 1.056 0 1.992-0.192 2.76-0.6s1.344-0.984 1.752-1.728v2.232h1.152v-7.944c0-1.536-0.432-2.688-1.248-3.48zm-1.608 9.816c-0.72001 0.48-1.608 0.72-2.64 0.72-1.104 0-1.968-0.216-2.568-0.696-0.624-0.48-0.91201-1.128-0.91201-1.944 0-0.768 0.26401-1.392 0.81601-1.848 0.55199-0.432 1.44-0.672 2.688-0.672h4.272v2.352c-0.384 0.912-0.936 1.608-1.656 2.088z"/>
  <path id="path374516" style="font-variant-ligatures:none" d="m354.99 428.06-0.504-0.84c-0.528 0.48-1.176 0.696-1.944 0.696s-1.368-0.192-1.752-0.624-0.576-1.056-0.576-1.872v-8.064h3.984v-1.032h-3.984v-2.736h-1.2v2.736h-2.304v1.032h2.304v8.184c0 1.08 0.288 1.92 0.888 2.52 0.576 0.6 1.416 0.888 2.52 0.888 0.48 0 0.96-0.072 1.416-0.216s0.84-0.384 1.152-0.672z"/>
  <path id="path374518" style="font-variant-ligatures:none" d="m359.09 416.32v12.528h1.2v-12.528zm-0.096-3.312c0.192 0.192 0.408 0.264 0.696 0.264 0.264 0 0.504-0.096 0.696-0.288s0.288-0.408 0.288-0.696c0-0.264-0.096-0.48-0.288-0.672s-0.432-0.288-0.696-0.288c-0.288 0-0.504 0.096-0.696 0.288s-0.288 0.432-0.288 0.696c0 0.288 0.096 0.504 0.288 0.696z"/>
  <path id="path374520" style="font-variant-ligatures:none" d="m366.41 428.49c0.912 0.312 1.872 0.456 2.88 0.456 1.56 0 2.784-0.312 3.648-0.936s1.296-1.44 1.296-2.496c0-0.768-0.216-1.392-0.624-1.848-0.432-0.432-0.936-0.768-1.536-0.96s-1.392-0.384-2.352-0.576c-0.888-0.168-1.584-0.336-2.064-0.48s-0.888-0.384-1.224-0.696-0.504-0.744-0.504-1.32c0-0.696 0.288-1.272 0.888-1.704 0.576-0.432 1.464-0.648 2.64-0.648 0.672 0 1.344 0.096 2.016 0.288 0.648 0.192 1.224 0.48 1.752 0.84l0.552-0.96c-0.504-0.36-1.152-0.648-1.92-0.888-0.792-0.216-1.584-0.336-2.376-0.336-1.536 0-2.712 0.336-3.528 0.984s-1.224 1.464-1.224 2.448c0 0.816 0.216 1.464 0.648 1.92 0.432 0.48 0.936 0.816 1.56 1.008 0.6 0.216 1.392 0.408 2.4 0.576 0.84 0.168 1.512 0.312 1.992 0.456s0.864 0.384 1.2 0.672c0.336 0.312 0.504 0.72 0.504 1.248 0 0.744-0.312 1.32-0.912 1.728-0.6 0.432-1.536 0.624-2.784 0.624-0.888 0-1.728-0.144-2.544-0.432s-1.464-0.648-1.968-1.08l-0.552 0.96c0.504 0.48 1.224 0.864 2.136 1.152z"/>
  <path id="path374522" style="font-variant-ligatures:none" d="m379.77 414.5c0-1.68 0.768-2.52 2.352-2.52 0.76799 0 1.416 0.24 1.944 0.696l0.48001-0.912c-0.28801-0.264-0.67201-0.456-1.104-0.6-0.432-0.144-0.888-0.216-1.368-0.216-1.104 0-1.968 0.312-2.568 0.936-0.624 0.624-0.912 1.464-0.912 2.52v1.92h-2.304v1.032h2.304v11.496h1.2v-11.496h3.984v-1.032h-4.01z"/>
  <path id="path374524" style="font-variant-ligatures:none" d="m397.27 416.32h-1.224l-5.016 11.208-5.016-11.208h-1.272l5.64 12.48-0.672 1.512c-0.384 0.816-0.768 1.392-1.2 1.728s-0.96 0.504-1.56 0.504c-0.912 0-1.704-0.312-2.328-0.984l-0.6 0.912c0.336 0.384 0.768 0.648 1.272 0.84s1.056 0.288 1.632 0.288c0.864 0 1.608-0.216 2.232-0.696 0.624-0.456 1.2-1.248 1.68-2.352z"/>
  <path id="path374526" style="font-variant-ligatures:none" d="m416.87 416.32h-1.224l-5.016 11.208-5.016-11.208h-1.272l5.64 12.48-0.672 1.512c-0.384 0.816-0.768 1.392-1.2 1.728s-0.96 0.504-1.56 0.504c-0.912 0-1.704-0.312-2.328-0.984l-0.6 0.912c0.336 0.384 0.768 0.648 1.272 0.84s1.056 0.288 1.632 0.288c0.864 0 1.608-0.216 2.232-0.696 0.624-0.456 1.2-1.248 1.68-2.352z"/>
  <path id="path374528" style="font-variant-ligatures:none" d="m421.52 428.13c0.96 0.552 2.016 0.816 3.216 0.816 1.176 0 2.232-0.264 3.192-0.816 0.96-0.528 1.704-1.296 2.256-2.256 0.528-0.96 0.816-2.064 0.816-3.288 0-1.2-0.288-2.304-0.816-3.264-0.552-0.96-1.296-1.728-2.256-2.28-0.96-0.528-2.016-0.816-3.192-0.816-1.2 0-2.256 0.288-3.216 0.816-0.96 0.552-1.704 1.32-2.232 2.28-0.552 0.96-0.816 2.064-0.816 3.264 0 1.224 0.264 2.328 0.816 3.288 0.528 0.96 1.272 1.728 2.232 2.256zm5.784-0.936c-0.768 0.456-1.608 0.672-2.568 0.672s-1.824-0.216-2.592-0.672c-0.768-0.432-1.368-1.056-1.8-1.872-0.432-0.792-0.648-1.704-0.648-2.736 0-1.008 0.216-1.92 0.648-2.736 0.432-0.792 1.032-1.416 1.8-1.872 0.768-0.432 1.632-0.672 2.592-0.672s1.8 0.24 2.568 0.672c0.768 0.456 1.368 1.08 1.8 1.872 0.432 0.816 0.672 1.728 0.672 2.736 0 1.032-0.24 1.944-0.672 2.736-0.432 0.816-1.032 1.44-1.8 1.872z"/>
  <path id="path374530" style="font-variant-ligatures:none" d="m446.42 416.32h-1.2v6.672c0 1.488-0.432 2.688-1.248 3.552-0.816 0.888-1.944 1.32-3.336 1.32-1.32 0-2.328-0.36-3.048-1.104-0.71999-0.72-1.08-1.8-1.08-3.216v-7.224h-1.2v7.32c0 1.728 0.45601 3.024 1.392 3.936 0.912 0.912 2.208 1.368 3.84 1.368 1.104 0 2.064-0.24 2.88-0.72s1.416-1.176 1.848-2.064v2.688h1.152z"/>
  <path id="path374532" style="font-variant-ligatures:none" d="m455.23 416.97c-0.816 0.48-1.416 1.176-1.8 2.088v-2.736h-1.152v12.528h1.2v-6.528c0-1.536 0.384-2.76 1.176-3.624 0.768-0.864 1.872-1.32 3.264-1.32l0.288 0.024v-1.176c-1.176 0-2.16 0.264-2.976 0.744z"/>
  <path id="path374534" style="font-variant-ligatures:none" d="m469.96 428.34c1.104 0.432 2.28 0.624 3.528 0.624 1.32 0 2.448-0.192 3.36-0.6 0.912-0.384 1.584-0.936 2.016-1.608s0.672-1.416 0.672-2.232c0-0.984-0.264-1.776-0.792-2.352s-1.152-1.032-1.872-1.32c-0.744-0.288-1.728-0.576-2.952-0.888-1.104-0.264-1.992-0.528-2.616-0.768-0.648-0.24-1.176-0.576-1.608-1.032-0.432-0.432-0.648-1.032-0.648-1.8 0-0.984 0.384-1.8 1.2-2.424 0.792-0.624 1.968-0.936 3.528-0.936 0.768 0 1.56 0.12 2.376 0.36s1.56 0.6 2.232 1.056l0.456-0.984c-0.672-0.456-1.44-0.816-2.328-1.104-0.912-0.264-1.824-0.408-2.736-0.408-1.344 0-2.448 0.216-3.336 0.6-0.888 0.408-1.536 0.96-1.968 1.632s-0.648 1.416-0.648 2.232c0 1.008 0.24 1.824 0.768 2.424s1.152 1.032 1.896 1.32 1.728 0.6 2.976 0.888c1.08 0.264 1.944 0.504 2.592 0.744 0.624 0.24 1.176 0.6 1.608 1.032 0.432 0.456 0.648 1.056 0.648 1.8 0 0.984-0.408 1.776-1.224 2.376-0.816 0.624-2.04 0.912-3.624 0.912-1.104 0-2.16-0.192-3.168-0.576s-1.8-0.912-2.376-1.536l-0.552 0.912c0.624 0.672 1.488 1.224 2.592 1.656z"/>
  <path id="path374536" style="font-variant-ligatures:none" d="m491.86 417.42c-0.84-0.792-2.04-1.2-3.576-1.2-0.96 0-1.896 0.168-2.76 0.48-0.888 0.312-1.632 0.744-2.256 1.296l0.6 0.864c0.528-0.48 1.152-0.864 1.92-1.152s1.56-0.432 2.4-0.432c1.2 0 2.136 0.312 2.76 0.912 0.624 0.624 0.96 1.512 0.96 2.664v1.008h-4.296c-1.632 0-2.832 0.336-3.576 0.984s-1.104 1.488-1.104 2.52c0 1.08 0.384 1.944 1.2 2.592 0.816 0.672 1.92 0.984 3.312 0.984 1.056 0 1.992-0.192 2.76-0.6s1.344-0.984 1.752-1.728v2.232h1.152v-7.944c0-1.536-0.432-2.688-1.248-3.48zm-1.608 9.816c-0.72 0.48-1.608 0.72-2.64 0.72-1.104 0-1.968-0.216-2.568-0.696-0.624-0.48-0.912-1.128-0.912-1.944 0-0.768 0.264-1.392 0.816-1.848 0.552-0.432 1.44-0.672 2.688-0.672h4.272v2.352c-0.384 0.912-0.936 1.608-1.656 2.088z"/>
  <path id="path374538" style="font-variant-ligatures:none" d="m498.82 411.04v17.808h1.2v-17.808z"/>
  <path id="path374540" style="font-variant-ligatures:none" d="m513.25 427.43c-0.696 0.288-1.464 0.432-2.256 0.432-1.296 0-2.376-0.336-3.288-1.008s-1.536-1.584-1.824-2.736l10.584-2.064c-0.072-1.104-0.336-2.088-0.864-2.976s-1.224-1.584-2.088-2.088-1.848-0.768-2.928-0.768c-1.176 0-2.232 0.288-3.144 0.816-0.936 0.552-1.656 1.296-2.184 2.256-0.52799 0.96-0.76799 2.064-0.76799 3.288 0 1.248 0.26399 2.328 0.816 3.288 0.55199 0.96 1.32 1.728 2.304 2.256 0.984 0.552 2.088 0.816 3.36 0.816 0.95999 0 1.848-0.168 2.688-0.504 0.792-0.336 1.488-0.84 2.04-1.536l-0.69-0.8c-0.48 0.6-1.056 1.032-1.752 1.32zm-5.208-9.48c0.744-0.432 1.584-0.672 2.544-0.672 0.81599 0 1.584 0.192 2.256 0.552s1.2 0.864 1.632 1.464c0.408 0.624 0.672 1.32 0.792 2.064l-9.552 1.872c-0.048-0.312-0.048-0.552-0.048-0.744 0-0.984 0.192-1.896 0.624-2.688 0.408-0.792 0.984-1.416 1.752-1.848z"/>
  <path id="path374542" style="font-variant-ligatures:none" d="m521.24 428.49c0.91199 0.312 1.872 0.456 2.88 0.456 1.56 0 2.784-0.312 3.648-0.936s1.296-1.44 1.296-2.496c0-0.768-0.216-1.392-0.624-1.848-0.432-0.432-0.936-0.768-1.536-0.96s-1.392-0.384-2.352-0.576c-0.88801-0.168-1.584-0.336-2.064-0.48s-0.888-0.384-1.224-0.696-0.504-0.744-0.504-1.32c0-0.696 0.288-1.272 0.888-1.704 0.576-0.432 1.464-0.648 2.64-0.648 0.672 0 1.344 0.096 2.016 0.288 0.648 0.192 1.224 0.48 1.752 0.84l0.552-0.96c-0.504-0.36-1.152-0.648-1.92-0.888-0.792-0.216-1.584-0.336-2.376-0.336-1.536 0-2.712 0.336-3.528 0.984s-1.224 1.464-1.224 2.448c0 0.816 0.216 1.464 0.648 1.92 0.432 0.48 0.936 0.816 1.56 1.008 0.6 0.216 1.392 0.408 2.4 0.576 0.84 0.168 1.512 0.312 1.992 0.456s0.864 0.384 1.2 0.672c0.336 0.312 0.504 0.72 0.504 1.248 0 0.744-0.312 1.32-0.912 1.728-0.6 0.432-1.536 0.624-2.784 0.624-0.888 0-1.728-0.144-2.544-0.432s-1.464-0.648-1.968-1.08l-0.552 0.96c0.504 0.48 1.224 0.864 2.136 1.152z"/>
  <path id="path374544" style="font-variant-ligatures:none" d="m534.6 414.5c0-1.68 0.768-2.52 2.352-2.52 0.768 0 1.416 0.24 1.944 0.696l0.48-0.912c-0.288-0.264-0.672-0.456-1.104-0.6s-0.888-0.216-1.368-0.216c-1.104 0-1.968 0.312-2.568 0.936-0.624 0.624-0.912 1.464-0.912 2.52v1.92h-2.304v1.032h2.304v11.496h1.2v-11.496h3.984v-1.032h-4.008z"/>
  <path id="path374546" style="font-variant-ligatures:none" d="m543.25 428.13c0.96 0.552 2.016 0.816 3.216 0.816 1.176 0 2.232-0.264 3.192-0.816 0.96-0.528 1.704-1.296 2.256-2.256 0.528-0.96 0.816-2.064 0.816-3.288 0-1.2-0.288-2.304-0.816-3.264-0.552-0.96-1.296-1.728-2.256-2.28-0.95999-0.528-2.016-0.816-3.192-0.816-1.2 0-2.256 0.288-3.216 0.816-0.96 0.552-1.704 1.32-2.232 2.28-0.552 0.96-0.816 2.064-0.816 3.264 0 1.224 0.264 2.328 0.816 3.288 0.528 0.96 1.272 1.728 2.232 2.256zm5.784-0.936c-0.768 0.456-1.608 0.672-2.568 0.672-0.95999 0-1.824-0.216-2.592-0.672-0.768-0.432-1.368-1.056-1.8-1.872-0.432-0.792-0.648-1.704-0.648-2.736 0-1.008 0.216-1.92 0.648-2.736 0.43201-0.792 1.032-1.416 1.8-1.872 0.768-0.432 1.632-0.672 2.592-0.672s1.8 0.24 2.568 0.672c0.768 0.456 1.368 1.08 1.8 1.872 0.432 0.816 0.672 1.728 0.672 2.736 0 1.032-0.24 1.944-0.672 2.736-0.432 0.816-1.032 1.44-1.8 1.872z"/>
  <path id="path374548" style="font-variant-ligatures:none" d="m560.14 416.97c-0.816 0.48-1.416 1.176-1.8 2.088v-2.736h-1.152v12.528h1.2v-6.528c0-1.536 0.384-2.76 1.176-3.624 0.768-0.864 1.872-1.32 3.264-1.32l0.288 0.024v-1.176c-1.176 0-2.16 0.264-2.976 0.744z"/>
  <path id="path374550" style="font-variant-ligatures:none" d="m568.78 428.13c0.95999 0.552 2.04 0.816 3.264 0.816 1.008 0 1.92-0.192 2.736-0.576 0.81599-0.384 1.488-0.96 2.016-1.728l-0.888-0.648c-0.45599 0.624-1.008 1.104-1.68 1.416-0.67201 0.312-1.392 0.456-2.184 0.456-0.98399 0-1.872-0.216-2.64-0.648-0.76799-0.432-1.392-1.056-1.824-1.872-0.432-0.792-0.648-1.704-0.648-2.76 0-1.032 0.216-1.944 0.648-2.76 0.43201-0.792 1.056-1.416 1.824-1.848s1.656-0.672 2.64-0.672c0.792 0 1.512 0.168 2.184 0.48 0.67199 0.312 1.224 0.768 1.68 1.392l0.888-0.648c-0.528-0.744-1.2-1.32-2.016-1.704s-1.728-0.6-2.736-0.6c-1.224 0-2.304 0.288-3.264 0.816-0.96001 0.528-1.728 1.296-2.256 2.256-0.552 0.96-0.816 2.064-0.816 3.288s0.264 2.328 0.816 3.288c0.528 0.96 1.296 1.728 2.256 2.256z"/>
  <path id="path374552" style="font-variant-ligatures:none" d="m588.29 427.43c-0.696 0.288-1.464 0.432-2.256 0.432-1.296 0-2.376-0.336-3.288-1.008s-1.536-1.584-1.824-2.736l10.584-2.064c-0.072-1.104-0.336-2.088-0.864-2.976s-1.224-1.584-2.088-2.088-1.848-0.768-2.928-0.768c-1.176 0-2.232 0.288-3.144 0.816-0.936 0.552-1.656 1.296-2.184 2.256s-0.768 2.064-0.768 3.288c0 1.248 0.264 2.328 0.816 3.288s1.32 1.728 2.304 2.256c0.984 0.552 2.088 0.816 3.36 0.816 0.96 0 1.848-0.168 2.688-0.504 0.792-0.336 1.488-0.84 2.04-1.536l-0.696-0.792c-0.48 0.6-1.056 1.032-1.752 1.32zm-5.208-9.48c0.744-0.432 1.584-0.672 2.544-0.672 0.816 0 1.584 0.192 2.256 0.552s1.2 0.864 1.632 1.464c0.408 0.624 0.672 1.32 0.792 2.064l-9.552 1.872c-0.048-0.312-0.048-0.552-0.048-0.744 0-0.984 0.192-1.896 0.624-2.688 0.408-0.792 0.984-1.416 1.752-1.848z"/>
  <path id="path374554" style="font-variant-ligatures:none" d="m608.71 412.05h-1.224l-7.728 16.8h1.32l7.008-15.456 7.032 15.456h1.32z"/>
  <path id="path374556" style="font-variant-ligatures:none" d="m629.31 417.04c-0.96-0.528-2.016-0.816-3.168-0.816-1.128 0-2.136 0.288-3.048 0.816s-1.608 1.272-2.088 2.232v-2.952h-1.152v17.184h1.2v-7.512c0.48 0.936 1.176 1.656 2.088 2.184 0.888 0.528 1.896 0.768 3 0.768 1.152 0 2.208-0.264 3.168-0.792 0.936-0.528 1.68-1.296 2.208-2.256 0.52799-0.96 0.81599-2.064 0.81599-3.312 0-1.224-0.288-2.328-0.81599-3.288-0.528-0.96-1.272-1.704-2.208-2.256zm-0.648 10.152c-0.768 0.456-1.632 0.672-2.592 0.672s-1.824-0.216-2.592-0.672c-0.768-0.432-1.368-1.056-1.8-1.872-0.432-0.792-0.648-1.704-0.648-2.736 0-1.008 0.216-1.92 0.648-2.736 0.432-0.792 1.032-1.416 1.8-1.872 0.768-0.432 1.632-0.672 2.592-0.672s1.824 0.24 2.592 0.672c0.768 0.456 1.368 1.08 1.8 1.872 0.432 0.816 0.672 1.728 0.672 2.736 0 1.032-0.24 1.944-0.672 2.736-0.432 0.816-1.032 1.44-1.8 1.872z"/>
  <path id="path374558" style="font-variant-ligatures:none" d="m646.28 417.04c-0.96-0.528-2.016-0.816-3.168-0.816-1.128 0-2.136 0.288-3.048 0.816s-1.608 1.272-2.088 2.232v-2.952h-1.152v17.184h1.2v-7.512c0.48 0.936 1.176 1.656 2.088 2.184 0.888 0.528 1.896 0.768 3 0.768 1.152 0 2.208-0.264 3.168-0.792 0.936-0.528 1.68-1.296 2.208-2.256 0.52799-0.96 0.81599-2.064 0.81599-3.312 0-1.224-0.288-2.328-0.81599-3.288-0.528-0.96-1.272-1.704-2.208-2.256zm-0.648 10.152c-0.768 0.456-1.632 0.672-2.592 0.672s-1.824-0.216-2.592-0.672c-0.768-0.432-1.368-1.056-1.8-1.872-0.432-0.792-0.648-1.704-0.648-2.736 0-1.008 0.216-1.92 0.648-2.736 0.432-0.792 1.032-1.416 1.8-1.872 0.768-0.432 1.632-0.672 2.592-0.672s1.824 0.24 2.592 0.672c0.768 0.456 1.368 1.08 1.8 1.872 0.432 0.816 0.672 1.728 0.672 2.736 0 1.032-0.24 1.944-0.672 2.736-0.432 0.816-1.032 1.44-1.8 1.872z"/>
  <path id="path374560" style="font-variant-ligatures:none" d="m661.19 427.43c-0.69601 0.288-1.464 0.432-2.256 0.432-1.296 0-2.376-0.336-3.288-1.008s-1.536-1.584-1.824-2.736l10.584-2.064c-0.072-1.104-0.33599-2.088-0.864-2.976-0.528-0.888-1.224-1.584-2.088-2.088s-1.848-0.768-2.928-0.768c-1.176 0-2.232 0.288-3.144 0.816-0.936 0.552-1.656 1.296-2.184 2.256s-0.768 2.064-0.768 3.288c0 1.248 0.264 2.328 0.816 3.288s1.32 1.728 2.304 2.256c0.984 0.552 2.088 0.816 3.36 0.816 0.96 0 1.848-0.168 2.688-0.504 0.792-0.336 1.488-0.84 2.04-1.536l-0.696-0.792c-0.48 0.6-1.056 1.032-1.752 1.32zm-5.208-9.48c0.74399-0.432 1.584-0.672 2.544-0.672 0.816 0 1.584 0.192 2.256 0.552s1.2 0.864 1.632 1.464c0.408 0.624 0.672 1.32 0.792 2.064l-9.552 1.872c-0.048-0.312-0.048-0.552-0.048-0.744 0-0.984 0.192-1.896 0.624-2.688 0.408-0.792 0.984-1.416 1.752-1.848z"/>
  <path id="path374562" style="font-variant-ligatures:none" d="m675.1 428.06-0.504-0.84c-0.528 0.48-1.176 0.696-1.944 0.696s-1.368-0.192-1.752-0.624-0.576-1.056-0.576-1.872v-8.064h3.984v-1.032h-3.984v-2.736h-1.2v2.736h-2.304v1.032h2.304v8.184c0 1.08 0.288 1.92 0.888 2.52 0.576 0.6 1.416 0.888 2.52 0.888 0.48 0 0.96-0.072 1.416-0.216s0.84-0.384 1.152-0.672z"/>
  <path id="path374564" style="font-variant-ligatures:none" d="m679.2 416.32v12.528h1.2v-12.528zm-0.096-3.312c0.192 0.192 0.408 0.264 0.696 0.264 0.26401 0 0.50401-0.096 0.69601-0.288 0.19199-0.192 0.288-0.408 0.288-0.696 0-0.264-0.096-0.48-0.288-0.672s-0.432-0.288-0.69601-0.288c-0.288 0-0.504 0.096-0.696 0.288-0.19199 0.192-0.288 0.432-0.288 0.696 0 0.288 0.096 0.504 0.288 0.696z"/>
  <path id="path374566" style="font-variant-ligatures:none" d="m692.45 428.06-0.504-0.84c-0.528 0.48-1.176 0.696-1.944 0.696s-1.368-0.192-1.752-0.624-0.576-1.056-0.576-1.872v-8.064h3.984v-1.032h-3.984v-2.736h-1.2v2.736h-2.304v1.032h2.304v8.184c0 1.08 0.288 1.92 0.888 2.52 0.576 0.6 1.416 0.888 2.52 0.888 0.48 0 0.96-0.072 1.416-0.216s0.84-0.384 1.152-0.672z"/>
  <path id="path374568" style="font-variant-ligatures:none" d="m703.47 427.43c-0.69601 0.288-1.464 0.432-2.256 0.432-1.296 0-2.376-0.336-3.288-1.008s-1.536-1.584-1.824-2.736l10.584-2.064c-0.072-1.104-0.33599-2.088-0.864-2.976-0.528-0.888-1.224-1.584-2.088-2.088s-1.848-0.768-2.928-0.768c-1.176 0-2.232 0.288-3.144 0.816-0.936 0.552-1.656 1.296-2.184 2.256s-0.768 2.064-0.768 3.288c0 1.248 0.264 2.328 0.816 3.288s1.32 1.728 2.304 2.256c0.984 0.552 2.088 0.816 3.36 0.816 0.96 0 1.848-0.168 2.688-0.504 0.792-0.336 1.488-0.84 2.04-1.536l-0.696-0.792c-0.48 0.6-1.056 1.032-1.752 1.32zm-5.208-9.48c0.74399-0.432 1.584-0.672 2.544-0.672 0.816 0 1.584 0.192 2.256 0.552s1.2 0.864 1.632 1.464c0.408 0.624 0.672 1.32 0.792 2.064l-9.552 1.872c-0.048-0.312-0.048-0.552-0.048-0.744 0-0.984 0.192-1.896 0.624-2.688 0.408-0.792 0.984-1.416 1.752-1.848z"/>
  <path id="path374571" style="font-variant-ligatures:none" d="m312.56 334.8h-4.0759l-25.734 55.944h4.3956l23.337-51.468 23.417 51.468h4.3956z"/>
  <path id="path374573" style="font-variant-ligatures:none" d="m385.06 339.83c-4-3.35-9.51-5.03-16.55-5.03h-20.06v3.6763h20.06c5.9141 0 10.47 1.3586 13.666 3.996 3.1169 2.6374 4.7153 6.3936 4.7153 11.189 0 4.8751-1.5984 8.6314-4.7153 11.189-3.1968 2.6374-7.7522 3.9161-13.666 3.9161h-20.06v21.978h4.0759v-18.302h15.984c7.033 0 12.547-1.5984 16.543-4.955s5.994-7.9121 5.994-13.826c0-5.8342-1.998-10.47-5.994-13.826z"/>
  <path id="path374575" style="font-variant-ligatures:none" d="m441.01 360.53h-36.21v3.5964h36.204zm0-25.734h-36.21v3.6763h36.204zm-36.204 52.268v3.6763h36.204v-3.6763z"/>
  <path id="path374577" style="font-variant-ligatures:none" d="m492.65 390.74h4.7952l-21.498-28.931 19.98-27.013h-4.5554l-17.82 24.06-17.82-24.06h-4.7952l19.98 27.093-21.498 28.851h4.7952l19.181-25.894z"/>
  <path id="path374579" style="font-variant-ligatures:none" d="m538.31 387.47c4.3956 2.4775 9.3506 3.6763 14.865 3.6763 3.996 0 7.6723-0.63936 11.109-1.998 3.4366-1.2787 6.3936-3.2767 8.7912-5.8342l-2.5574-2.6374c-4.5554 4.4755-10.31 6.7133-17.183 6.7133-4.7153 0-8.951-1.039-12.787-3.1968-3.8362-2.0779-6.8731-5.035-9.031-8.7912-2.2378-3.7562-3.2767-7.992-3.2767-12.627 0-4.6354 1.039-8.7912 3.2767-12.547 2.1578-3.7562 5.1948-6.7133 9.031-8.8711 3.8362-2.0779 8.0719-3.1968 12.787-3.1968 6.953 0 12.707 2.2378 17.183 6.6334l2.5574-2.6374c-2.3976-2.5574-5.3546-4.4755-8.7113-5.7542-3.4366-1.2787-7.1928-1.998-11.189-1.998-5.5145 0-10.47 1.2787-14.865 3.6763-4.3956 2.4775-7.8322 5.8342-10.39 10.15-2.5574 4.3157-3.7562 9.1908-3.7562 14.545 0 5.4346 1.1988 10.23 3.7562 14.545 2.5574 4.3157 5.994 7.7522 10.39 10.15z"/>
  <path id="path374581" style="font-variant-ligatures:none" d="m632.36 334.8h-4.0759v25.734h-37.39v-25.73h-4.0759v55.944h4.0759v-26.613h37.403v26.61h4.0759z"/>
  <path id="path374583" style="font-variant-ligatures:none" d="m688.1 360.53h-36.204v3.5964h36.204zm0-25.734h-36.204v3.6763h36.204zm-36.204 52.268v3.6763h36.204v-3.6763z"/>
  <path id="path374585" style="font-variant-ligatures:none" d="m705.44 334.8v3.6763h35.804v-3.68zm0 55.944h4.0759v-24.695h31.728v-3.6763h-35.804z"/>
 </g>

</svg>