<?xml version="1.0" encoding="utf-8"?>
<svg version="1.1" xmlns:cc="http://creativecommons.org/ns#" xmlns:dc="http://purl.org/dc/elements/1.1/" xmlns:rdf="http://www.w3.org/1999/02/22-rdf-syntax-ns#" xmlns="http://www.w3.org/2000/svg" xmlns:xlink="http://www.w3.org/1999/xlink" x="0px" y="0px" viewBox="0 0 1024 768" xml:space="preserve">
<path fill="#ffffff" d="m557.99 328.61c-6.16 0-11.69 1.43-16.6 4.11-4.91 2.76-8.75 6.51-11.61 11.33-2.85 4.82-4.19 10.27-4.19 16.24 0 6.07 1.34 11.43 4.19 16.25 2.86 4.82 6.7 8.65 11.61 11.33 4.91 2.77 10.44 4.11 16.6 4.11 4.46 0 8.56-0.72 12.4-2.23 3.84-1.43 7.14-3.66 9.82-6.52l-2.86-2.94c-5.08 4.99-11.51 7.49-19.19 7.49-5.26 0-9.99-1.16-14.28-3.57-4.28-2.32-7.67-5.62-10.08-9.81-2.5-4.2-3.66-8.93-3.66-14.11 0-5.17 1.16-9.81 3.66-14.01 2.41-4.19 5.8-7.49 10.08-9.9 4.29-2.32 9.02-3.57 14.28-3.57 7.77 0 14.2 2.5 19.19 7.4l2.86-2.94c-2.68-2.86-5.98-5-9.73-6.43-3.84-1.42-8.03-2.23-12.49-2.23zm-273.25 0.45l-28.74 62.47h4.91l26.06-57.47 26.15 57.47h4.91l-28.74-62.47h-4.55zm44.63 0v4.1h22.4c6.6 0 11.69 1.52 15.26 4.46 3.48 2.95 5.27 7.15 5.27 12.5 0 5.45-1.79 9.64-5.27 12.5-3.57 2.94-8.66 4.37-15.26 4.37h-22.4v24.54h4.55v-20.44h17.85c7.85 0 14.01-1.78 18.47-5.53 4.47-3.75 6.7-8.83 6.7-15.44 0-6.51-2.23-11.69-6.7-15.44-4.46-3.75-10.62-5.62-18.47-5.62h-22.4zm62.92 0v4.1h40.43v-4.1h-40.43zm51.51 0l22.32 30.25-24.01 32.22h5.35l21.42-28.91 21.51 28.91h5.36l-24.01-32.31 22.31-30.16h-5.09l-19.9 26.86-19.9-26.86h-5.36zm151.74 0v62.47h4.55v-29.72h41.77v29.72h4.55v-62.47h-4.55v28.73h-41.77v-28.73h-4.55zm72.69 0v4.1h40.43v-4.1h-40.43zm59.79 0v4.1h39.98v-4.1h-39.98zm-335.73 28.73v4.02h40.43v-4.02h-40.43zm275.94 0v4.02h40.43v-4.02h-40.43zm59.79 2.06v31.68h4.55v-27.58h35.43v-4.1h-39.98zm-335.73 27.58v4.1h40.43v-4.1h-40.43zm275.94 0v4.1h40.43v-4.1h-40.43zm-301.32 26.66c-1.23 0-2.2 0.35-2.87 1.04-0.69 0.7-1.01 1.64-1.01 2.82v2.14h-2.58v1.15h2.58v12.84h1.34v-12.84h4.45v-1.15h-4.48v-2.04c0-1.87 0.86-2.81 2.63-2.81 0.85 0 1.58 0.27 2.17 0.78l0.53-1.02c-0.32-0.29-0.75-0.51-1.23-0.67s-0.99-0.24-1.53-0.24zm172.9 0c-1.23 0-2.2 0.35-2.87 1.04-0.69 0.7-1.02 1.64-1.02 2.82v2.14h-2.57v1.15h2.57v12.84h1.34v-12.84h4.45v-1.15h-4.47v-2.04c0-1.87 0.85-2.81 2.62-2.81 0.86 0 1.59 0.27 2.18 0.78l0.53-1.02c-0.32-0.29-0.75-0.51-1.23-0.67s-0.99-0.24-1.53-0.24zm-42.52 0.11v19.88h1.34v-19.88h-1.34zm-155.38 0.32c-0.32 0-0.56 0.1-0.77 0.32-0.22 0.21-0.32 0.48-0.32 0.78 0 0.32 0.1 0.56 0.32 0.77 0.21 0.22 0.45 0.3 0.77 0.3 0.3 0 0.57-0.11 0.78-0.32 0.22-0.22 0.32-0.46 0.32-0.78 0-0.29-0.1-0.54-0.32-0.75-0.21-0.22-0.48-0.32-0.78-0.32zm357.47 0c-0.32 0-0.56 0.1-0.77 0.32-0.22 0.21-0.32 0.48-0.32 0.78 0 0.32 0.1 0.56 0.32 0.77 0.21 0.22 0.45 0.3 0.77 0.3 0.3 0 0.57-0.11 0.78-0.32 0.21-0.22 0.32-0.46 0.32-0.78 0-0.29-0.11-0.54-0.32-0.75-0.21-0.22-0.48-0.32-0.78-0.32zm-397.63 0.67c-1.5 0-2.73 0.24-3.72 0.67-0.99 0.45-1.72 1.07-2.2 1.82s-0.72 1.58-0.72 2.49c0 1.13 0.26 2.04 0.85 2.71s1.29 1.15 2.12 1.47c0.83 0.33 1.93 0.67 3.32 0.99 1.21 0.3 2.18 0.57 2.9 0.84 0.7 0.26 1.31 0.67 1.79 1.15 0.49 0.51 0.73 1.18 0.73 2.01 0 1.1-0.46 1.98-1.37 2.65-0.91 0.7-2.28 1.02-4.05 1.02-1.23 0-2.41-0.21-3.53-0.64-1.13-0.43-2.01-1.02-2.66-1.72l-0.61 1.02c0.69 0.75 1.66 1.37 2.89 1.85s2.55 0.69 3.94 0.69c1.48 0 2.74-0.21 3.75-0.67 1.02-0.42 1.77-1.04 2.25-1.79 0.49-0.75 0.76-1.58 0.76-2.49 0-1.1-0.3-1.99-0.89-2.63s-1.29-1.15-2.09-1.47c-0.83-0.33-1.93-0.65-3.3-0.99-1.23-0.3-2.22-0.59-2.92-0.86-0.72-0.27-1.31-0.65-1.79-1.16-0.49-0.48-0.73-1.15-0.73-2.01 0-1.09 0.43-2.01 1.34-2.7 0.89-0.7 2.2-1.05 3.94-1.05 0.86 0 1.75 0.14 2.66 0.4 0.91 0.27 1.74 0.68 2.49 1.18l0.51-1.09c-0.75-0.51-1.61-0.92-2.6-1.24-1.02-0.29-2.04-0.45-3.06-0.45zm167.56 0c-1.5 0-2.73 0.24-3.72 0.67-1 0.45-1.72 1.07-2.2 1.82-0.49 0.75-0.73 1.58-0.73 2.49 0 1.13 0.27 2.04 0.86 2.71s1.29 1.15 2.12 1.47c0.83 0.33 1.93 0.67 3.32 0.99 1.21 0.3 2.17 0.57 2.9 0.84 0.69 0.26 1.31 0.67 1.79 1.15 0.48 0.51 0.73 1.18 0.73 2.01 0 1.1-0.46 1.98-1.37 2.65-0.91 0.7-2.28 1.02-4.05 1.02-1.23 0-2.41-0.21-3.54-0.64-1.12-0.43-2.01-1.02-2.65-1.72l-0.62 1.02c0.7 0.75 1.67 1.37 2.9 1.85s2.54 0.69 3.94 0.69c1.47 0 2.73-0.21 3.75-0.67 1.02-0.42 1.77-1.04 2.25-1.79s0.75-1.58 0.75-2.49c0-1.1-0.29-1.99-0.88-2.63s-1.29-1.15-2.09-1.47c-0.83-0.33-1.93-0.65-3.3-0.99-1.23-0.3-2.22-0.59-2.92-0.86-0.72-0.27-1.31-0.65-1.8-1.16-0.48-0.48-0.72-1.15-0.72-2.01 0-1.09 0.43-2.01 1.34-2.7 0.89-0.7 2.2-1.05 3.94-1.05 0.86 0 1.74 0.14 2.65 0.4 0.92 0.27 1.75 0.68 2.5 1.18l0.5-1.09c-0.75-0.51-1.6-0.92-2.59-1.24-1.02-0.29-2.04-0.45-3.06-0.45zm149.32 0.13l-8.63 18.76h1.48l7.82-17.26 7.85 17.26h1.48l-8.63-18.76h-1.37zm-288.63 1.72v3.05h-2.58v1.15h2.58v9.14c0 1.21 0.32 2.15 0.99 2.82 0.64 0.67 1.58 0.99 2.81 0.99 0.54 0 1.07-0.08 1.58-0.24s0.94-0.43 1.29-0.75l-0.56-0.94c-0.59 0.54-1.32 0.78-2.17 0.78-0.86 0-1.53-0.22-1.96-0.7s-0.64-1.18-0.64-2.09v-9.01h4.45v-1.15h-4.45v-3.05h-1.34zm357.46 0v3.05h-2.57v1.15h2.57v9.14c0 1.21 0.33 2.15 1 2.82 0.64 0.67 1.58 0.99 2.81 0.99 0.54 0 1.07-0.08 1.58-0.24s0.94-0.43 1.29-0.75l-0.56-0.94c-0.59 0.54-1.32 0.78-2.18 0.78-0.85 0-1.52-0.22-1.95-0.7s-0.65-1.18-0.65-2.09v-9.01h4.45v-1.15h-4.45v-3.05h-1.34zm19.37 0v3.05h-2.57v1.15h2.57v9.14c0 1.21 0.32 2.15 0.99 2.82 0.65 0.67 1.59 0.99 2.82 0.99 0.53 0 1.07-0.08 1.58-0.24s0.94-0.43 1.29-0.75l-0.57-0.94c-0.59 0.54-1.31 0.78-2.17 0.78-0.85 0-1.52-0.22-1.95-0.7s-0.65-1.18-0.65-2.09v-9.01h4.45v-1.15h-4.45v-3.05h-1.34zm-388.87 2.94c-1.08 0-2.12 0.19-3.08 0.54-1 0.35-1.83 0.83-2.52 1.45l0.67 0.96c0.59-0.53 1.28-0.96 2.14-1.28 0.86-0.33 1.74-0.49 2.68-0.49 1.34 0 2.38 0.35 3.08 1.02 0.7 0.7 1.07 1.69 1.07 2.98v1.12h-4.79c-1.83 0-3.17 0.38-4 1.1s-1.23 1.66-1.23 2.82c0 1.2 0.43 2.17 1.34 2.89 0.91 0.75 2.15 1.1 3.7 1.1 1.18 0 2.22-0.21 3.08-0.67s1.5-1.1 1.96-1.93v2.49h1.28v-8.87c0-1.71-0.48-3-1.39-3.89-0.94-0.88-2.28-1.34-3.99-1.34zm34.89 0c-1.72 0-3.03 0.38-3.94 1.1-0.91 0.73-1.37 1.64-1.37 2.74 0 0.91 0.24 1.63 0.73 2.14 0.48 0.54 1.04 0.91 1.74 1.13 0.67 0.24 1.55 0.45 2.68 0.64 0.94 0.19 1.69 0.35 2.22 0.51 0.54 0.16 0.97 0.43 1.34 0.75 0.38 0.35 0.56 0.8 0.56 1.39 0 0.83-0.34 1.48-1.01 1.93-0.67 0.48-1.72 0.7-3.11 0.7-0.99 0-1.93-0.16-2.84-0.48s-1.64-0.73-2.2-1.21l-0.62 1.07c0.57 0.54 1.37 0.97 2.39 1.29 1.02 0.35 2.09 0.51 3.21 0.51 1.75 0 3.11-0.35 4.08-1.05 0.96-0.69 1.45-1.61 1.45-2.78 0-0.86-0.25-1.56-0.7-2.07-0.48-0.48-1.05-0.85-1.72-1.07-0.67-0.21-1.55-0.43-2.62-0.64-0.99-0.19-1.77-0.38-2.31-0.54-0.53-0.16-0.99-0.43-1.36-0.78-0.38-0.34-0.57-0.83-0.57-1.47 0-0.78 0.32-1.42 0.99-1.9 0.65-0.49 1.64-0.73 2.95-0.73 0.75 0 1.5 0.11 2.25 0.32 0.73 0.22 1.37 0.54 1.96 0.94l0.62-1.07c-0.57-0.4-1.29-0.72-2.15-0.99-0.88-0.24-1.77-0.38-2.65-0.38zm61.7 0c-1.34 0-2.52 0.33-3.59 0.92-1.07 0.61-1.9 1.47-2.49 2.54-0.62 1.07-0.91 2.31-0.91 3.65 0 1.36 0.29 2.6 0.91 3.67 0.59 1.07 1.42 1.93 2.49 2.52 1.07 0.61 2.25 0.91 3.59 0.91 1.32 0 2.5-0.3 3.57-0.91 1.07-0.59 1.9-1.45 2.52-2.52 0.59-1.07 0.91-2.31 0.91-3.67 0-1.34-0.32-2.58-0.91-3.65-0.62-1.07-1.45-1.93-2.52-2.54-1.07-0.59-2.25-0.92-3.57-0.92zm37.38 0c-1.32 0-2.42 0.3-3.33 0.83-0.91 0.54-1.58 1.32-2.01 2.34v-3.06h-1.28v13.99h1.34v-7.29c0-1.71 0.43-3.08 1.31-4.05 0.86-0.96 2.09-1.47 3.65-1.47l0.32 0.03v-1.32zm33.59 0c-1.08 0-2.12 0.19-3.09 0.54-0.99 0.35-1.82 0.83-2.52 1.45l0.67 0.96c0.59-0.53 1.29-0.96 2.15-1.28 0.86-0.33 1.74-0.49 2.68-0.49 1.34 0 2.38 0.35 3.08 1.02 0.7 0.7 1.07 1.69 1.07 2.98v1.12h-4.79c-1.83 0-3.17 0.38-4 1.1s-1.23 1.66-1.23 2.82c0 1.2 0.43 2.17 1.34 2.89 0.91 0.75 2.14 1.1 3.7 1.1 1.18 0 2.22-0.21 3.08-0.67s1.5-1.1 1.96-1.93v2.49h1.28v-8.87c0-1.71-0.48-3-1.39-3.89-0.94-0.88-2.28-1.34-3.99-1.34zm24.9 0c-1.32 0-2.49 0.33-3.51 0.92-1.05 0.61-1.85 1.44-2.44 2.51-0.59 1.08-0.86 2.31-0.86 3.68 0 1.39 0.3 2.6 0.91 3.67 0.62 1.07 1.48 1.93 2.58 2.52 1.09 0.61 2.33 0.91 3.75 0.91 1.07 0 2.06-0.19 3-0.56 0.88-0.38 1.66-0.94 2.28-1.72l-0.78-0.88c-0.54 0.67-1.18 1.15-1.96 1.47-0.77 0.32-1.63 0.48-2.51 0.48-1.45 0-2.66-0.37-3.68-1.12s-1.71-1.77-2.03-3.06l11.81-2.3c-0.08-1.24-0.37-2.33-0.96-3.33-0.59-0.99-1.37-1.77-2.33-2.33-0.97-0.56-2.07-0.86-3.27-0.86zm15.33 0c-1.72 0-3.03 0.38-3.94 1.1-0.91 0.73-1.37 1.64-1.37 2.74 0 0.91 0.24 1.63 0.72 2.14 0.49 0.54 1.05 0.91 1.75 1.13 0.67 0.24 1.55 0.45 2.68 0.64 0.93 0.19 1.68 0.35 2.22 0.51s0.97 0.43 1.34 0.75c0.38 0.35 0.56 0.8 0.56 1.39 0 0.83-0.34 1.48-1.01 1.93-0.67 0.48-1.72 0.7-3.11 0.7-1 0-1.93-0.16-2.85-0.48-0.91-0.32-1.63-0.73-2.19-1.21l-0.62 1.07c0.56 0.54 1.37 0.97 2.39 1.29 1.01 0.35 2.09 0.51 3.21 0.51 1.74 0 3.11-0.35 4.08-1.05 0.96-0.69 1.44-1.61 1.44-2.78 0-0.86-0.24-1.56-0.69-2.07-0.49-0.48-1.05-0.85-1.72-1.07-0.67-0.21-1.55-0.43-2.63-0.64-0.99-0.19-1.77-0.38-2.3-0.54-0.54-0.16-0.99-0.43-1.37-0.78-0.37-0.34-0.56-0.83-0.56-1.47 0-0.78 0.32-1.42 0.99-1.9 0.64-0.49 1.64-0.73 2.95-0.73 0.75 0 1.5 0.11 2.25 0.32 0.72 0.22 1.37 0.54 1.96 0.94l0.61-1.07c-0.56-0.4-1.28-0.72-2.14-0.99-0.88-0.24-1.77-0.38-2.65-0.38zm24.74 0c-1.34 0-2.52 0.33-3.59 0.92-1.07 0.61-1.9 1.47-2.49 2.54-0.62 1.07-0.91 2.31-0.91 3.65 0 1.36 0.29 2.6 0.91 3.67 0.59 1.07 1.42 1.93 2.49 2.52 1.07 0.61 2.25 0.91 3.59 0.91 1.32 0 2.5-0.3 3.57-0.91 1.07-0.59 1.9-1.45 2.52-2.52 0.59-1.07 0.91-2.31 0.91-3.67 0-1.34-0.32-2.58-0.91-3.65-0.62-1.07-1.45-1.93-2.52-2.54-1.07-0.59-2.25-0.92-3.57-0.92zm18.59 0c-1.32 0-2.41 0.3-3.33 0.83-0.91 0.54-1.58 1.32-2.01 2.34v-3.06h-1.28v13.99h1.34v-7.29c0-1.71 0.43-3.08 1.31-4.05 0.86-0.96 2.09-1.47 3.65-1.47l0.32 0.03v-1.32zm9.97 0c-1.37 0-2.57 0.33-3.65 0.92-1.07 0.59-1.92 1.44-2.51 2.51-0.62 1.08-0.92 2.31-0.92 3.68 0 1.36 0.3 2.6 0.92 3.67 0.59 1.07 1.44 1.93 2.51 2.52 1.08 0.61 2.28 0.91 3.65 0.91 1.13 0 2.14-0.22 3.06-0.65 0.91-0.42 1.66-1.07 2.25-1.92l-0.99-0.73c-0.51 0.7-1.13 1.23-1.88 1.58s-1.55 0.51-2.44 0.51c-1.1 0-2.09-0.24-2.95-0.72s-1.55-1.18-2.04-2.09c-0.48-0.89-0.72-1.9-0.72-3.08 0-1.16 0.24-2.17 0.72-3.09 0.49-0.88 1.18-1.58 2.04-2.06s1.85-0.75 2.95-0.75c0.89 0 1.69 0.19 2.44 0.54 0.75 0.34 1.37 0.85 1.88 1.55l0.99-0.72c-0.59-0.83-1.34-1.48-2.25-1.91-0.92-0.42-1.93-0.67-3.06-0.67zm15.17 0c-1.31 0-2.49 0.33-3.51 0.92-1.04 0.61-1.85 1.44-2.44 2.51-0.59 1.08-0.85 2.31-0.85 3.68 0 1.39 0.29 2.6 0.91 3.67 0.61 1.07 1.47 1.93 2.57 2.52 1.1 0.61 2.33 0.91 3.75 0.91 1.07 0 2.07-0.19 3-0.56 0.89-0.38 1.67-0.94 2.28-1.72l-0.77-0.88c-0.54 0.67-1.18 1.15-1.96 1.47s-1.64 0.48-2.52 0.48c-1.45 0-2.65-0.37-3.67-1.12s-1.72-1.77-2.04-3.06l11.82-2.3c-0.08-1.24-0.37-2.33-0.96-3.33-0.59-0.99-1.37-1.77-2.34-2.33-0.96-0.56-2.06-0.86-3.27-0.86zm45.24 0c-1.25 0-2.38 0.33-3.4 0.92s-1.79 1.42-2.33 2.49v-3.3h-1.29v19.19h1.34v-8.39c0.54 1.05 1.32 1.85 2.34 2.44 0.99 0.59 2.11 0.86 3.34 0.86 1.29 0 2.47-0.3 3.54-0.89 1.05-0.58 1.88-1.44 2.47-2.51 0.59-1.08 0.91-2.31 0.91-3.7 0-1.37-0.32-2.6-0.91-3.68-0.59-1.07-1.42-1.9-2.47-2.51-1.07-0.59-2.25-0.92-3.54-0.92zm18.95 0c-1.26 0-2.38 0.33-3.4 0.92s-1.79 1.42-2.33 2.49v-3.3h-1.29v19.19h1.34v-8.39c0.54 1.05 1.32 1.85 2.33 2.44 1 0.59 2.12 0.86 3.35 0.86 1.29 0 2.47-0.3 3.54-0.89 1.05-0.58 1.88-1.44 2.47-2.51 0.59-1.08 0.91-2.31 0.91-3.7 0-1.37-0.32-2.6-0.91-3.68-0.59-1.07-1.42-1.9-2.47-2.51-1.07-0.59-2.25-0.92-3.54-0.92zm17.21 0c-1.31 0-2.49 0.33-3.51 0.92-1.04 0.61-1.85 1.44-2.44 2.51-0.59 1.08-0.86 2.31-0.86 3.68 0 1.39 0.3 2.6 0.91 3.67 0.62 1.07 1.48 1.93 2.58 2.52 1.1 0.61 2.33 0.91 3.75 0.91 1.07 0 2.06-0.19 3-0.56 0.89-0.38 1.66-0.94 2.28-1.72l-0.78-0.88c-0.53 0.67-1.18 1.15-1.95 1.47-0.78 0.32-1.64 0.48-2.52 0.48-1.45 0-2.66-0.37-3.67-1.12-1.02-0.75-1.72-1.77-2.04-3.06l11.82-2.3c-0.08-1.24-0.38-2.33-0.97-3.33-0.59-0.99-1.36-1.77-2.33-2.33-0.96-0.56-2.06-0.86-3.27-0.86zm47.22 0c-1.32 0-2.5 0.33-3.51 0.92-1.05 0.61-1.85 1.44-2.44 2.51-0.59 1.08-0.86 2.31-0.86 3.68 0 1.39 0.29 2.6 0.91 3.67s1.47 1.93 2.57 2.52c1.1 0.61 2.34 0.91 3.76 0.91 1.07 0 2.06-0.19 3-0.56 0.88-0.38 1.66-0.94 2.27-1.72l-0.77-0.88c-0.54 0.67-1.18 1.15-1.96 1.47-0.77 0.32-1.63 0.48-2.52 0.48-1.44 0-2.65-0.37-3.67-1.12s-1.71-1.77-2.04-3.06l11.82-2.3c-0.08-1.24-0.37-2.33-0.96-3.33-0.59-0.99-1.37-1.77-2.33-2.33-0.97-0.56-2.07-0.86-3.27-0.86zm-381.6 0.11v13.99h1.34v-13.99h-1.34zm28.65 0l6.3 13.94-0.75 1.69c-0.43 0.91-0.86 1.55-1.34 1.93-0.48 0.37-1.07 0.56-1.74 0.56-1.02 0-1.91-0.35-2.6-1.1l-0.67 1.02c0.37 0.43 0.85 0.72 1.42 0.94 0.56 0.21 1.18 0.32 1.82 0.32 0.96 0 1.8-0.24 2.49-0.78 0.7-0.51 1.34-1.39 1.88-2.63l7.18-15.89h-1.36l-5.61 12.52-5.6-12.52h-1.42zm21.88 0l6.3 13.94-0.75 1.69c-0.43 0.91-0.86 1.55-1.34 1.93-0.48 0.37-1.07 0.56-1.74 0.56-1.02 0-1.9-0.35-2.6-1.1l-0.67 1.02c0.37 0.43 0.86 0.72 1.42 0.94 0.56 0.21 1.18 0.32 1.82 0.32 0.97 0 1.8-0.24 2.49-0.78 0.7-0.51 1.34-1.39 1.88-2.63l7.18-15.89h-1.37l-5.6 12.52-5.6-12.52h-1.42zm34.59 0v8.18c0 1.93 0.5 3.37 1.55 4.39 1.02 1.02 2.46 1.53 4.29 1.53 1.23 0 2.3-0.27 3.21-0.81 0.92-0.53 1.58-1.31 2.07-2.3v3h1.28v-13.99h-1.34v7.45c0 1.66-0.48 3-1.39 3.97-0.91 0.99-2.17 1.47-3.73 1.47-1.47 0-2.6-0.4-3.4-1.23-0.8-0.8-1.2-2.01-1.2-3.59v-8.07h-1.34zm272.35 0v13.99h1.34v-13.99h-1.34zm-188.29 1.07c0.91 0 1.77 0.22 2.52 0.62s1.34 0.96 1.82 1.63c0.46 0.7 0.75 1.48 0.88 2.31l-10.66 2.09c-0.06-0.35-0.06-0.62-0.06-0.83 0-1.1 0.22-2.12 0.7-3 0.46-0.89 1.1-1.58 1.96-2.07 0.83-0.48 1.77-0.75 2.84-0.75zm83.8 0c0.92 0 1.77 0.22 2.52 0.62s1.34 0.96 1.83 1.63c0.45 0.7 0.75 1.48 0.88 2.31l-10.67 2.09c-0.05-0.35-0.05-0.62-0.05-0.83 0-1.1 0.21-2.12 0.7-3 0.45-0.89 1.1-1.58 1.95-2.07 0.83-0.48 1.77-0.75 2.84-0.75zm81.4 0c0.91 0 1.77 0.22 2.52 0.62s1.34 0.96 1.82 1.63c0.46 0.7 0.75 1.48 0.89 2.31l-10.67 2.09c-0.05-0.35-0.05-0.62-0.05-0.83 0-1.1 0.21-2.12 0.69-3 0.46-0.89 1.1-1.58 1.96-2.07 0.83-0.48 1.77-0.75 2.84-0.75zm47.22 0c0.91 0 1.77 0.22 2.52 0.62s1.34 0.96 1.82 1.63c0.46 0.7 0.75 1.48 0.88 2.31l-10.66 2.09c-0.06-0.35-0.06-0.62-0.06-0.83 0-1.1 0.22-2.12 0.7-3 0.45-0.89 1.1-1.58 1.96-2.07 0.83-0.48 1.77-0.75 2.84-0.75zm-308.29 0.03c1.07 0 2.01 0.27 2.87 0.75 0.86 0.51 1.53 1.21 2.01 2.09 0.48 0.91 0.75 1.93 0.75 3.06 0 1.15-0.27 2.17-0.75 3.05-0.48 0.91-1.15 1.61-2.01 2.09-0.86 0.51-1.8 0.75-2.87 0.75s-2.03-0.24-2.89-0.75c-0.86-0.48-1.53-1.18-2.01-2.09-0.48-0.88-0.73-1.9-0.73-3.05 0-1.13 0.25-2.15 0.73-3.06 0.48-0.88 1.15-1.58 2.01-2.09 0.86-0.48 1.82-0.75 2.89-0.75zm135.94 0c1.08 0 2.01 0.27 2.87 0.75 0.86 0.51 1.53 1.21 2.01 2.09 0.48 0.91 0.75 1.93 0.75 3.06 0 1.15-0.27 2.17-0.75 3.05-0.48 0.91-1.15 1.61-2.01 2.09-0.86 0.51-1.79 0.75-2.87 0.75-1.07 0-2.03-0.24-2.89-0.75-0.86-0.48-1.53-1.18-2.01-2.09-0.48-0.88-0.72-1.9-0.72-3.05 0-1.13 0.24-2.15 0.72-3.06 0.48-0.88 1.15-1.58 2.01-2.09 0.86-0.48 1.82-0.75 2.89-0.75zm88.89 0c1.08 0 2.04 0.27 2.9 0.75 0.86 0.51 1.53 1.21 2.01 2.09 0.48 0.91 0.75 1.93 0.75 3.06 0 1.15-0.27 2.17-0.75 3.05-0.48 0.91-1.15 1.61-2.01 2.09-0.86 0.51-1.82 0.75-2.9 0.75-1.07 0-2.03-0.24-2.89-0.75-0.86-0.48-1.53-1.18-2.01-2.09-0.48-0.88-0.72-1.9-0.72-3.05 0-1.13 0.24-2.15 0.72-3.06 0.48-0.88 1.15-1.58 2.01-2.09 0.86-0.48 1.82-0.75 2.89-0.75zm18.95 0c1.08 0 2.04 0.27 2.9 0.75 0.86 0.51 1.53 1.21 2.01 2.09 0.48 0.91 0.75 1.93 0.75 3.06 0 1.15-0.27 2.17-0.75 3.05-0.48 0.91-1.15 1.61-2.01 2.09-0.86 0.51-1.82 0.75-2.9 0.75-1.07 0-2.03-0.24-2.89-0.75-0.86-0.48-1.53-1.18-2.01-2.09-0.48-0.88-0.72-1.9-0.72-3.05 0-1.13 0.24-2.15 0.72-3.06 0.48-0.88 1.15-1.58 2.01-2.09 0.86-0.48 1.82-0.75 2.89-0.75zm-341.1 6.14h4.77v2.63c-0.42 1.01-1.04 1.79-1.85 2.33-0.8 0.53-1.79 0.8-2.94 0.8-1.24 0-2.2-0.24-2.87-0.78-0.7-0.53-1.02-1.26-1.02-2.17 0-0.86 0.3-1.55 0.91-2.06 0.62-0.48 1.61-0.75 3-0.75zm167.56 0h4.77v2.63c-0.43 1.01-1.04 1.79-1.85 2.33-0.8 0.53-1.79 0.8-2.94 0.8-1.24 0-2.2-0.24-2.87-0.78-0.7-0.53-1.02-1.26-1.02-2.17 0-0.86 0.29-1.55 0.91-2.06 0.62-0.48 1.61-0.75 3-0.75z" />
</svg>